# xmcd
#
# Track frame offsets:
#	150
#	16651
#	32163
#
# Disc length: 640 seconds
#
# Revision: 0
# Processed by: cddbd v1.5.2PL0 Copyright (c) Steve Scherf et al.
# Submitted via: dBpowerAMP V4.0
#
DISCID=16027e03
DTITLE=John Legend - Used To Love U [CDS]
DYEAR=2004
DGENRE=Pop
TTITLE0=Used To Love U (Album Version)
TTITLE1=Used To Love U (Instrumental)
TTITLE2=Used To Love U (A Cappella)
EXTD=
EXTT0=
EXTT1=
EXTT2=
PLAYORDER=
